<svg width="512" height="512" viewBox="0 0 512 512" fill="none" xmlns="http://www.w3.org/2000/svg">
<rect width="512" height="512" rx="80" fill="url(#paint0_linear_151_34)"/>
<g filter="url(#filter0_d_151_34)">
<path d="M90.949 171.203C92.6935 173.137 94.1999 174.829 95.7063 176.521C85.29 158.654 74.9756 141.015 75.9558 119.413C83.6454 139.794 92.9295 159.155 107.997 175.311C102.633 159.798 93.3128 145.133 98.7733 127.615C100.558 127.514 100.294 128.718 100.525 129.582C108.175 158.139 120.544 184.482 145.852 200.972C166.017 214.111 185.609 227.701 204.075 243.083C213.755 251.147 224.817 256.791 237.431 259.257C244.807 260.7 250.848 258.115 256.624 254.355C260.554 251.797 264.123 248.686 267.863 245.834C275.47 240.035 283.873 236.518 293.613 237.646C298.556 238.218 302.779 235.914 307.352 235.041C313.549 233.858 318.525 237.343 318.933 243.127C306.031 242.82 299.554 248.852 301.937 259.028C303.951 259.52 305.259 258.064 306.704 257.153C314.841 252.025 322.091 245.753 328.94 239.073C342.297 226.041 356.298 213.727 370.176 201.268C390.726 182.819 402.449 158.979 411.129 133.339C411.872 131.143 411.022 128.526 413.09 125.826C419.513 143.518 410.406 158.071 405.993 173.435C420.573 157.763 428.172 138.403 435.534 118.402C437.609 120.933 437.102 123.48 436.864 125.932C435.366 141.302 428.46 154.738 421.668 168.21C421.318 168.904 420.888 169.559 420.782 170.421C434.675 158.085 442.099 141.229 451.551 125.453C455.484 133.855 442.068 159.093 421.173 183.031C435.395 175.616 443.902 163.438 454.367 153.206C452.223 167.726 442.016 177.353 432.431 188.86C441.576 186.553 447.723 180.627 455.556 178.147C455.153 184.458 452.732 186.547 426.761 203.29C436.898 203.946 445.745 199.018 456 198.461C454.606 202.595 451.9 204.317 449.201 205.954C440.074 211.489 430.084 214.701 419.675 216.755C417.532 217.177 415.396 217.64 412.018 218.341C419.627 220.711 425.956 219.845 432.364 219.233C438.598 218.637 444.632 216.45 452.079 216.785C447.34 223.156 440.895 225.114 434.84 227.598C428.547 230.179 421.619 230.329 413.717 232.583C423.703 235.865 432.729 234.578 441.768 235.007C439.625 239.515 432.985 242.49 424.298 242.836C417.733 243.097 411.15 242.888 403.852 242.888C408.591 247.181 414.222 247.877 419.52 248.983C424.758 250.077 430.158 250.397 435.454 251.678C423.567 260.97 410.717 256.883 397.881 254.699C403.857 260.805 412.564 262.146 419.768 267.64C409.891 272.951 401.3 268.181 392.45 266.741C398.705 272.906 407.132 275.507 414.014 280.621C403.849 283.583 394.962 279.615 384.936 275.809C389.27 282.662 397.182 284.024 401.238 291.064C390.549 293.167 383.684 286.887 375.338 282.719C376.923 284.857 378.129 286.559 379.416 288.198C380.818 289.982 382.351 291.665 383.716 293.475C384.562 294.599 385.905 295.882 384.855 297.356C383.577 299.151 381.886 297.961 380.483 297.301C375.903 295.145 372.415 291.377 367.533 288.275C369.221 292.644 371.87 295.627 373.865 298.983C374.82 300.589 376.675 302.298 375.393 304.251C374.021 306.34 371.886 304.887 370.049 304.553C369.46 304.446 368.825 304.588 368.221 304.616C368.209 315.748 365.678 314.344 359.725 311.747C357.329 312.988 357.784 319.21 352.924 316.02C350.355 314.335 350.553 310.517 348.373 307.848C346.136 310.882 347.098 314.178 346.139 317.036C344.266 322.623 343.88 322.95 338.353 320.66C337.779 320.423 337.141 320.339 336.58 320.195C332.889 326.388 332.881 326.401 326.428 322.092C325.305 321.342 323.729 320.336 322.89 321.181C320.07 324.021 315.229 322.078 312.847 325.734C312.277 326.608 311.067 326.69 310.204 326.057C307.873 324.344 305.944 324.327 303.217 325.867C301.061 327.084 299.782 324.204 298.581 322.542C295.453 318.217 294.214 318.084 291.925 322.738C284.735 337.354 273.138 346.853 258.196 352.665C256.84 353.192 255.504 353.805 254.232 354.508C246.879 358.575 245.876 362.243 250.008 369.554C251.599 372.37 253.218 375.18 254.622 378.091C255.579 380.074 255.751 382.257 254.047 383.996C252.096 385.986 250.148 384.596 248.282 383.674C247.274 383.176 246.36 382.446 245.149 382.676C240.212 390.997 240.187 391.027 232.491 384.768C230.901 383.475 229.677 383.298 228.49 385.11C228.313 385.38 228.193 385.687 228.021 385.96C221.911 395.676 221.91 395.676 213.267 388.485C211.654 388.576 210.836 389.946 209.685 390.786C205.711 393.682 203.086 393.588 200.096 389.679C198.232 387.243 196.249 386.463 193.426 387.076C190.138 387.789 187.659 386.945 186.593 383.426C186.115 381.846 185.004 381.229 183.333 381.052C175.948 380.268 175.957 380.221 177.062 372.737C177.132 372.268 177.071 371.78 177.071 371.056C174.378 370.066 172.124 371.928 169.676 372.19C166.916 372.486 163.669 373.195 162.137 370.391C160.418 367.244 163.682 365.577 165.457 363.633C166.182 362.839 167.074 362.199 168.085 361.319C165.052 360.243 162.408 361.784 159.736 361.503C157.841 361.303 155.451 361.56 154.539 359.583C153.45 357.223 155.88 356.297 157.283 355.089C157.769 354.67 158.428 354.454 159.043 354.127C157.105 350.931 153.087 352.552 151.797 349.237C152.684 346.481 155.37 346.141 157.79 345.498C166.166 343.272 174.842 343.771 183.362 342.812C196.579 341.325 205.562 334.578 210.922 322.641C211.557 321.228 212.824 319.464 210.971 318.304C209.095 317.13 208.208 319.147 207.102 320.252C204.531 322.82 202.288 326.419 197.787 323.518C194.9 326.661 189.997 322.609 187.236 326.486C186.74 327.182 184.887 327.82 184.68 327.198C182.752 321.4 175.958 328.351 174.122 323.108C172.942 319.738 171.294 319.176 168.358 321.16C165.777 322.904 164.51 321.497 164.013 318.899C163.627 316.881 163.23 314.865 162.819 312.749C160.048 313.157 159.649 315.615 158.302 317.062C155.624 319.938 153.91 319.804 152.9 316.103C152.154 313.371 151.589 311.627 148.102 312.682C145.315 313.526 143.932 311.744 143.747 308.97C143.653 307.56 144.158 306.024 143.167 304.979C140.987 303.249 137.673 306.897 136.513 303.618C135.508 300.777 138.133 298.601 139.566 296.306C140.661 294.551 142.17 293.004 142.525 290.311C138.705 291.604 136.463 294.828 133.173 296.27C131.232 297.121 129.087 299.707 127.163 297.414C125.498 295.428 128.12 293.718 129.225 292.053C130.633 289.931 132.79 288.318 133.927 284.943C126.521 287.519 120.558 293.499 111.778 290.972C114.619 283.763 122.965 282.715 127.205 275.95C121.498 277.459 117.223 280.082 112.418 281.035C107.677 281.976 102.993 282.535 98.0054 280.763C105.516 275.33 114.634 272.541 122.412 265.298C112.126 267.425 103.282 273.077 92.2565 267.885C99.9693 262.076 108.93 260.376 116.111 254.01C102.337 256.371 89.1471 261.428 76.6934 252.028C87.9744 250.058 99.4909 249.326 110.882 242.236C96.1445 242.392 82.1679 245.806 70.3162 236.248C79.5299 235.722 88.7092 235.957 97.75 232.872C84.6511 229.945 71.0459 228.321 60.997 217.828C73.5348 217.731 85.8267 222.335 99.7307 218.709C94.6148 217.534 90.7644 216.636 86.9068 215.769C78.3058 213.835 70.1279 210.776 62.5114 206.338C59.9536 204.848 57.1497 203.38 56.0801 198.803C66.5698 200.398 75.9736 204.153 86.7019 204.066C74.5124 197.561 62.5854 191.664 56 179.216C64.8063 181.52 71.7504 187.676 81.0064 190.628C70.8132 179.293 59.6733 169.417 57.0398 153.937C67.3128 163.337 75.3269 175.144 88.2324 181.613C74.0523 165.69 62.7921 148.268 58.779 126.901C69.4632 141.613 76.9236 158.578 90.949 171.203Z" fill="#F5F5F5"/>
</g>
<defs>
<filter id="filter0_d_151_34" x="52" y="118.402" width="408" height="283.196" filterUnits="userSpaceOnUse" color-interpolation-filters="sRGB">
<feFlood flood-opacity="0" result="BackgroundImageFix"/>
<feColorMatrix in="SourceAlpha" type="matrix" values="0 0 0 0 0 0 0 0 0 0 0 0 0 0 0 0 0 0 127 0" result="hardAlpha"/>
<feOffset dy="4"/>
<feGaussianBlur stdDeviation="2"/>
<feComposite in2="hardAlpha" operator="out"/>
<feColorMatrix type="matrix" values="0 0 0 0 0 0 0 0 0 0 0 0 0 0 0 0 0 0 0.25 0"/>
<feBlend mode="normal" in2="BackgroundImageFix" result="effect1_dropShadow_151_34"/>
<feBlend mode="normal" in="SourceGraphic" in2="effect1_dropShadow_151_34" result="shape"/>
</filter>
<linearGradient id="paint0_linear_151_34" x1="256" y1="0" x2="256" y2="512" gradientUnits="userSpaceOnUse">
<stop stop-color="#663399"/>
<stop offset="0.5" stop-color="#9966CC"/>
<stop offset="1" stop-color="#CC99FF"/>
</linearGradient>
</defs>
</svg>
